<svg xmlns="http://www.w3.org/2000/svg" xmlns:xlink="http://www.w3.org/1999/xlink" width="22" height="22" viewBox="0 0 22 22">
  <defs>
    <clipPath id="clip-path">
      <rect id="Rectangle_27360" data-name="Rectangle 27360" width="22" height="22" transform="translate(-14203 -18602)" fill="#a6a6aa" stroke="#3d7eaa" stroke-width="1"/>
    </clipPath>
  </defs>
  <g id="Mask_Group_191" data-name="Mask Group 191" transform="translate(14203 18602)" clip-path="url(#clip-path)">
    <path id="home_1_" data-name="home (1)" d="M21.428,9.569l0,0L12.453.593a2.025,2.025,0,0,0-2.864,0L.619,9.563.61,9.572a2.024,2.024,0,0,0,1.348,3.451c.021,0,.042,0,.063,0h.358v6.6A2.373,2.373,0,0,0,4.748,22H8.259a.645.645,0,0,0,.645-.645V16.178A1.083,1.083,0,0,1,9.985,15.1h2.071a1.083,1.083,0,0,1,1.081,1.081v5.178a.645.645,0,0,0,.645.645h3.511a2.373,2.373,0,0,0,2.371-2.37v-6.6H20a2.026,2.026,0,0,0,1.433-3.457Zm-.913,1.952a.732.732,0,0,1-.521.216h-.976a.644.644,0,0,0-.645.645V19.63a1.083,1.083,0,0,1-1.081,1.081H14.426V16.178a2.373,2.373,0,0,0-2.371-2.371H9.985a2.373,2.373,0,0,0-2.371,2.371v4.533H4.748A1.083,1.083,0,0,1,3.666,19.63V12.381a.644.644,0,0,0-.645-.645h-.99a.735.735,0,0,1-.507-1.256h0L10.5,1.5a.736.736,0,0,1,1.041,0l8.972,8.972,0,0a.738.738,0,0,1,0,1.04Zm0,0" transform="translate(-14203.021 -18602)" fill="#a6a6aa"/>
  </g>
</svg>
